<svg width="28" height="28" viewBox="0 0 28 28" fill="none" xmlns="http://www.w3.org/2000/svg">
<path d="M14.0002 2.33334C17.17 2.33334 17.5655 2.34501 18.8092 2.40334C20.0517 2.46168 20.8975 2.65651 21.6418 2.94584C22.4118 3.24218 23.0605 3.64351 23.7092 4.29101C24.3024 4.87422 24.7614 5.5797 25.0543 6.35834C25.3425 7.10151 25.5385 7.94851 25.5968 9.19101C25.6517 10.4347 25.6668 10.8302 25.6668 14C25.6668 17.1698 25.6552 17.5653 25.5968 18.809C25.5385 20.0515 25.3425 20.8973 25.0543 21.6417C24.7623 22.4207 24.3031 23.1264 23.7092 23.709C23.1258 24.3021 22.4204 24.7611 21.6418 25.0542C20.8987 25.3423 20.0517 25.5383 18.8092 25.5967C17.5655 25.6515 17.17 25.6667 14.0002 25.6667C10.8303 25.6667 10.4348 25.655 9.19116 25.5967C7.94866 25.5383 7.10283 25.3423 6.3585 25.0542C5.57954 24.7619 4.87394 24.3028 4.29116 23.709C3.6978 23.1259 3.23875 22.4204 2.946 21.6417C2.65666 20.8985 2.46183 20.0515 2.4035 18.809C2.34866 17.5653 2.3335 17.1698 2.3335 14C2.3335 10.8302 2.34516 10.4347 2.4035 9.19101C2.46183 7.94734 2.65666 7.10268 2.946 6.35834C3.23794 5.57922 3.6971 4.87355 4.29116 4.29101C4.87411 3.69745 5.57966 3.23836 6.3585 2.94584C7.10283 2.65651 7.9475 2.46168 9.19116 2.40334C10.4348 2.34851 10.8303 2.33334 14.0002 2.33334ZM14.0002 8.16668C12.4531 8.16668 10.9693 8.78126 9.87537 9.87522C8.78141 10.9692 8.16683 12.4529 8.16683 14C8.16683 15.5471 8.78141 17.0308 9.87537 18.1248C10.9693 19.2188 12.4531 19.8333 14.0002 19.8333C15.5473 19.8333 17.031 19.2188 18.125 18.1248C19.2189 17.0308 19.8335 15.5471 19.8335 14C19.8335 12.4529 19.2189 10.9692 18.125 9.87522C17.031 8.78126 15.5473 8.16668 14.0002 8.16668ZM21.5835 7.87501C21.5835 7.48824 21.4299 7.1173 21.1564 6.84381C20.8829 6.57032 20.5119 6.41668 20.1252 6.41668C19.7384 6.41668 19.3675 6.57032 19.094 6.84381C18.8205 7.1173 18.6668 7.48824 18.6668 7.87501C18.6668 8.26178 18.8205 8.63272 19.094 8.90621C19.3675 9.1797 19.7384 9.33334 20.1252 9.33334C20.5119 9.33334 20.8829 9.1797 21.1564 8.90621C21.4299 8.63272 21.5835 8.26178 21.5835 7.87501ZM14.0002 10.5C14.9284 10.5 15.8187 10.8688 16.475 11.5251C17.1314 12.1815 17.5002 13.0718 17.5002 14C17.5002 14.9283 17.1314 15.8185 16.475 16.4749C15.8187 17.1313 14.9284 17.5 14.0002 17.5C13.0719 17.5 12.1817 17.1313 11.5253 16.4749C10.8689 15.8185 10.5002 14.9283 10.5002 14C10.5002 13.0718 10.8689 12.1815 11.5253 11.5251C12.1817 10.8688 13.0719 10.5 14.0002 10.5Z" fill="#131212"/>
</svg>
