<svg width="18" height="16" viewBox="0 0 18 16" fill="none" xmlns="http://www.w3.org/2000/svg">
<path d="M7.96124 0C3.62273 0 0.0928497 3.16096 0.0928497 7.04604C0.0928497 10.9313 3.62273 14.0921 7.96124 14.0921C12.3 14.0921 15.8296 10.9313 15.8296 7.04604C15.8296 3.16096 12.3 0 7.96124 0ZM7.96124 12.7913C4.42362 12.7913 1.54548 10.214 1.54548 7.04607C1.54548 3.87818 4.42362 1.30081 7.96124 1.30081C11.4989 1.30081 14.377 3.87815 14.377 7.04604C14.377 10.2139 11.4989 12.7913 7.96124 12.7913Z" fill="white"/>
<path d="M17.7474 14.8897L13.5832 11.1607C13.2995 10.9066 12.8399 10.9066 12.5562 11.1607C12.2724 11.4146 12.2724 11.8265 12.5562 12.0804L16.7204 15.8094C16.8622 15.9364 17.048 16 17.2339 16C17.4196 16 17.6055 15.9364 17.7474 15.8094C18.0312 15.5555 18.0312 15.1436 17.7474 14.8897Z" fill="white"/>
</svg>
