<svg width="28" height="28" viewBox="0 0 28 28" fill="none" xmlns="http://www.w3.org/2000/svg">
<path d="M25.8559 6.59867C24.9652 6.99265 24.0206 7.25139 23.0535 7.36634C24.0729 6.75668 24.8358 5.79719 25.2002 4.66667C24.2435 5.23601 23.1947 5.63501 22.1015 5.85084C21.3672 5.06518 20.3939 4.54413 19.333 4.36869C18.272 4.19325 17.1828 4.37325 16.2347 4.8807C15.2865 5.38816 14.5326 6.19464 14.0902 7.17476C13.6477 8.15489 13.5414 9.25375 13.7878 10.3005C11.8478 10.2033 9.9499 9.69912 8.21735 8.82078C6.4848 7.94245 4.95633 6.70956 3.73118 5.20217C3.29752 5.94703 3.06963 6.79377 3.07085 7.65567C3.07085 9.34734 3.93185 10.8418 5.24085 11.7168C4.46619 11.6925 3.70859 11.4833 3.03118 11.1067V11.1673C3.03142 12.294 3.42128 13.3859 4.13467 14.2579C4.84806 15.1299 5.84108 15.7284 6.94535 15.9518C6.22623 16.1467 5.47221 16.1754 4.74035 16.0358C5.0517 17.0056 5.65852 17.8537 6.47587 18.4615C7.29322 19.0692 8.28017 19.4061 9.29852 19.425C8.28641 20.2199 7.12756 20.8075 5.88821 21.1542C4.64886 21.5009 3.35333 21.6 2.07568 21.4457C4.306 22.88 6.9023 23.6415 9.55402 23.639C18.5292 23.639 23.4374 16.2038 23.4374 9.75567C23.4374 9.54567 23.4315 9.33334 23.4222 9.12567C24.3775 8.4352 25.202 7.57986 25.857 6.59984L25.8559 6.59867Z" fill="#131212"/>
</svg>
